<svg xmlns="http://www.w3.org/2000/svg" width="20" height="21" viewBox="0 0 20 21">
  <metadata><?xpacket begin="﻿" id="W5M0MpCehiHzreSzNTczkc9d"?>
<x:xmpmeta xmlns:x="adobe:ns:meta/" x:xmptk="Adobe XMP Core 5.6-c138 79.159824, 2016/09/14-01:09:01        ">
   <rdf:RDF xmlns:rdf="http://www.w3.org/1999/02/22-rdf-syntax-ns#">
      <rdf:Description rdf:about=""/>
   </rdf:RDF>
</x:xmpmeta>
                                                                                                    
                                                                                                    
                                                                                                    
                                                                                                    
                                                                                                    
                                                                                                    
                                                                                                    
                                                                                                    
                                                                                                    
                                                                                                    
                                                                                                    
                                                                                                    
                                                                                                    
                                                                                                    
                                                                                                    
                                                                                                    
                                                                                                    
                                                                                                    
                                                                                                    
                                                                                                    
                           
<?xpacket end="w"?></metadata>
<defs>
    <style>
      .cls-1 {
        fill-rule: evenodd;
      }
    </style>
  </defs>
  <path id="icon_bascket" class="cls-1" d="M1167.5,32a2.5,2.5,0,1,1-2.5,2.5A2.5,2.5,0,0,1,1167.5,32Zm7,0a2.5,2.5,0,1,1-2.5,2.5A2.5,2.5,0,0,1,1174.5,32Zm-10.04-12h14.08a1.434,1.434,0,0,1,1.46,1.412l-2.92,7.176c0,0.78-1.39,1.412-2.2,1.412h-8.42a1.434,1.434,0,0,1-1.46-1.412l-2-7.176A1.434,1.434,0,0,1,1164.46,20Zm-2.39-3.358,1.93-.517,2.07,7.727-1.93.518ZM1160,16h4v2h-4V16Z" transform="translate(-1160 -16)"/>
</svg>
