<svg xmlns="http://www.w3.org/2000/svg" width="18" height="19" viewBox="0 0 18 19">
  <metadata><?xpacket begin="﻿" id="W5M0MpCehiHzreSzNTczkc9d"?>
<x:xmpmeta xmlns:x="adobe:ns:meta/" x:xmptk="Adobe XMP Core 5.6-c138 79.159824, 2016/09/14-01:09:01        ">
   <rdf:RDF xmlns:rdf="http://www.w3.org/1999/02/22-rdf-syntax-ns#">
      <rdf:Description rdf:about=""/>
   </rdf:RDF>
</x:xmpmeta>
                                                                                                    
                                                                                                    
                                                                                                    
                                                                                                    
                                                                                                    
                                                                                                    
                                                                                                    
                                                                                                    
                                                                                                    
                                                                                                    
                                                                                                    
                                                                                                    
                                                                                                    
                                                                                                    
                                                                                                    
                                                                                                    
                                                                                                    
                                                                                                    
                                                                                                    
                                                                                                    
                           
<?xpacket end="w"?></metadata>
<defs>
    <style>
      .cls-1 {
        fill-rule: evenodd;
      }
    </style>
  </defs>
  <path id="icon_thumbs_up" class="cls-1" d="M179,1526.35a0.75,0.75,0,1,0-.75.73,0.745,0.745,0,0,0,.75-0.73h0Zm13.5-6.58a1.527,1.527,0,0,0-1.5-1.46h-4.125c0-1.34,1.125-2.31,1.125-3.66,0-1.33-.27-2.19-1.875-2.19-0.75.74-.363,2.49-1.5,3.66-0.328.33-.609,0.68-0.9,1.03-0.528.67-1.922,2.62-2.848,2.62H180.5v7.31h0.375a9.588,9.588,0,0,1,2.367.62,12.508,12.508,0,0,0,4.008.84h1.418c1.324,0,2.25-.52,2.25-1.91a3.752,3.752,0,0,0-.059-0.64,1.68,1.68,0,0,0,.762-1.44,1.539,1.539,0,0,0-.211-0.78,1.815,1.815,0,0,0,.621-1.36,2.011,2.011,0,0,0-.41-1.18c0.551-.01.879-1.04,0.879-1.46h0Zm1.5-.01a3.305,3.305,0,0,1-.574,1.86,2.953,2.953,0,0,1,.105.79,3.253,3.253,0,0,1-.445,1.64,3.511,3.511,0,0,1,.035.49,3.268,3.268,0,0,1-.7,2.03c0.023,2.16-1.488,3.43-3.656,3.43H187.25a14.885,14.885,0,0,1-4.758-1,8.419,8.419,0,0,0-1.617-.46H177.5a1.476,1.476,0,0,1-1.5-1.46v-7.31a1.476,1.476,0,0,1,1.5-1.46h3.211a11.059,11.059,0,0,0,1.6-1.77c0.4-.5.809-1,1.254-1.46,0.7-.73.328-2.54,1.5-3.66a1.564,1.564,0,0,1,1.055-.42,3.134,3.134,0,0,1,2.965,1.53,4.3,4.3,0,0,1,.41,2.12,4.8,4.8,0,0,1-.563,2.2H191a3,3,0,0,1,3,2.91h0Z" transform="translate(-176 -1511)"/>
</svg>
