<svg xmlns="http://www.w3.org/2000/svg" width="18" height="19" viewBox="0 0 18 19">
  <metadata><?xpacket begin="﻿" id="W5M0MpCehiHzreSzNTczkc9d"?>
<x:xmpmeta xmlns:x="adobe:ns:meta/" x:xmptk="Adobe XMP Core 5.6-c138 79.159824, 2016/09/14-01:09:01        ">
   <rdf:RDF xmlns:rdf="http://www.w3.org/1999/02/22-rdf-syntax-ns#">
      <rdf:Description rdf:about=""/>
   </rdf:RDF>
</x:xmpmeta>
                                                                                                    
                                                                                                    
                                                                                                    
                                                                                                    
                                                                                                    
                                                                                                    
                                                                                                    
                                                                                                    
                                                                                                    
                                                                                                    
                                                                                                    
                                                                                                    
                                                                                                    
                                                                                                    
                                                                                                    
                                                                                                    
                                                                                                    
                                                                                                    
                                                                                                    
                                                                                                    
                           
<?xpacket end="w"?></metadata>
<defs>
    <style>
      .cls-1 {
        fill-rule: evenodd;
      }
    </style>
  </defs>
  <path id="Фигура_1" data-name="Фигура 1" class="cls-1" d="M263,1514.65a0.75,0.75,0,1,0-.75.73,0.745,0.745,0,0,0,.75-0.73h0Zm13.5,6.58c0-.42-0.328-1.45-0.879-1.46a2.011,2.011,0,0,0,.41-1.18,1.815,1.815,0,0,0-.621-1.36,1.539,1.539,0,0,0,.211-0.78,1.68,1.68,0,0,0-.762-1.44,3.752,3.752,0,0,0,.059-0.64c0-1.34-.867-1.91-2.168-1.91h-1.5a12.77,12.77,0,0,0-4.008.83,9.192,9.192,0,0,1-2.367.63H264.5v7.31h0.375c0.926,0,2.32,1.95,2.848,2.62,0.293,0.35.574,0.7,0.9,1.03,1.137,1.17.75,2.92,1.5,3.66,1.605,0,1.875-.86,1.875-2.19,0-1.35-1.125-2.32-1.125-3.66H275a1.527,1.527,0,0,0,1.5-1.46h0Zm1.5,0.01a3,3,0,0,1-3,2.91h-2.063a4.8,4.8,0,0,1,.563,2.2,4.3,4.3,0,0,1-.41,2.12,3.134,3.134,0,0,1-2.965,1.53,1.564,1.564,0,0,1-1.055-.42c-1.172-1.12-.808-2.93-1.5-3.67a18.161,18.161,0,0,1-1.254-1.45,11.059,11.059,0,0,0-1.6-1.77H261.5a1.476,1.476,0,0,1-1.5-1.46v-7.31a1.476,1.476,0,0,1,1.5-1.46h3.375a8.419,8.419,0,0,0,1.617-.46,14.763,14.763,0,0,1,4.957-1h1.313c2.133,0,3.668,1.23,3.656,3.37v0.06a3.268,3.268,0,0,1,.7,2.03,3.511,3.511,0,0,1-.035.49,3.253,3.253,0,0,1,.445,1.64,2.953,2.953,0,0,1-.105.79,3.305,3.305,0,0,1,.574,1.86h0Z" transform="translate(-260 -1511)"/>
</svg>
